# xmcd
#
# Track frame offsets:
#	150
#	17727
#	32291
#	41552
#	56465
#	70931
#	94551
#	107164
#	123382
#	143447
#	158821
#	171901
#	187309
#
# Disc length: 2637 seconds
#
# Revision: 1
# Processed by: cddbd v1.5.2PL0 Copyright (c) Steve Scherf et al.
# Submitted via: audiograbber 1.83.01
#
DISCID=a70a4b0d
DTITLE=Cornshed Sisters - Honey and Tar
DYEAR=2018
DGENRE=Country
TTITLE0=The Message
TTITLE1=Cuddling
TTITLE2=Jobs for the Boys
TTITLE3=We Have Said This is Impossible
TTITLE4=Waiting for Audreya
TTITLE5=Black and White
TTITLE6=Honey and Tar
TTITLE7=Running
TTITLE8=Show Me
TTITLE9=Sunday Best - Small Spaces
TTITLE10=A&E
TTITLE11=Holding On
TTITLE12=Variety
EXTD=
EXTT0=
EXTT1=
EXTT2=
EXTT3=
EXTT4=
EXTT5=
EXTT6=
EXTT7=
EXTT8=
EXTT9=
EXTT10=
EXTT11=
EXTT12=
PLAYORDER=
